<svg fill="#228BE6" xmlns="http://www.w3.org/2000/svg"  viewBox="0 0 64 64" width="48px" height="48px"><path d="M 21.484375 4.0527344 C 20.813375 4.0527344 20.269531 4.5965781 20.269531 5.2675781 C 20.269531 5.9385781 20.813375 6.4824219 21.484375 6.4824219 C 22.155375 6.4824219 22.699219 5.9385781 22.699219 5.2675781 C 22.699219 4.5965781 22.155375 4.0527344 21.484375 4.0527344 z M 36.412109 5.5878906 C 35.162109 5.5878906 34.148438 6.6015625 34.148438 7.8515625 C 34.148438 9.1015625 35.162109 10.115234 36.412109 10.115234 C 37.662109 10.115234 38.677734 9.1015625 38.677734 7.8515625 C 38.677734 6.6015625 37.662109 5.5878906 36.412109 5.5878906 z M 29.496094 10.779297 C 24.533094 10.779297 20.307906 13.889719 18.628906 18.261719 C 14.853906 18.835719 11.957031 22.086484 11.957031 26.021484 C 11.957031 27.499484 12.373031 28.875641 13.082031 30.056641 C 11.397031 31.591641 10.333984 33.796859 10.333984 36.255859 C 10.333984 40.423859 13.375422 43.871391 17.357422 44.525391 C 17.436422 49.410391 21.414359 53.349609 26.318359 53.349609 C 28.465359 53.349609 30.436469 52.591984 31.980469 51.333984 C 33.154469 52.435984 34.723937 53.123047 36.460938 53.123047 C 39.608938 53.123047 42.230187 50.906219 42.867188 47.949219 C 42.997187 47.954219 43.126812 47.96875 43.257812 47.96875 C 48.682813 47.96875 53.080078 43.571484 53.080078 38.146484 C 53.080078 36.193484 52.502531 34.377656 51.519531 32.847656 C 52.836531 31.833656 53.699219 30.25875 53.699219 28.46875 C 53.699219 25.87075 51.905188 23.707422 49.492188 23.107422 C 49.522188 22.790422 49.541016 22.470484 49.541016 22.146484 C 49.541016 16.586484 45.032656 12.078125 39.472656 12.078125 C 38.228656 12.078125 37.041406 12.315516 35.941406 12.728516 C 34.095406 11.499516 31.880094 10.779297 29.496094 10.779297 z M 16.412109 12.669922 C 15.472109 12.669922 14.708984 13.432047 14.708984 14.373047 C 14.708984 15.314047 15.472109 16.076172 16.412109 16.076172 C 17.353109 16.076172 18.115234 15.313047 18.115234 14.373047 C 18.115234 13.432047 17.352109 12.669922 16.412109 12.669922 z M 53.515625 18.144531 C 52.457625 18.144531 51.599609 19.002547 51.599609 20.060547 C 51.599609 21.118547 52.457625 21.976562 53.515625 21.976562 C 54.573625 21.976563 55.431641 21.118547 55.431641 20.060547 C 55.431641 19.002547 54.573625 18.144531 53.515625 18.144531 z M 34.636719 20.455078 C 36.249719 20.455078 37.024406 22.177734 37.691406 22.177734 C 38.240406 22.177734 38.592047 21.363281 40.623047 21.363281 C 42.438047 21.363281 44.148438 22.734281 44.148438 24.863281 C 44.148438 26.419281 42.189344 30.620641 41.402344 32.431641 C 40.331344 34.896641 39.900391 36.549391 39.900391 37.275391 C 39.900391 38.001391 40.179109 39.026359 41.662109 39.193359 C 43.178109 39.364359 44.462891 39.564 44.462891 40.75 C 44.462891 41.735 43.456141 42.460938 41.869141 42.460938 C 39.573141 42.460937 35.543922 41.498234 35.544922 37.740234 C 35.544922 35.819234 36.160281 35.036563 36.738281 33.851562 C 37.466281 32.357563 38.847234 29.408578 39.365234 28.267578 C 39.883234 27.126578 39.913141 26.443672 39.119141 26.263672 C 38.551141 26.135672 38.022406 26.412875 37.566406 27.421875 C 37.146406 28.352875 33.538906 35.287094 33.003906 36.496094 C 32.393906 37.872094 31.530375 38.869141 30.234375 38.869141 C 28.938375 38.869141 27.935172 37.994656 28.701172 35.972656 C 29.271172 34.467656 31.053391 30.202531 31.400391 29.144531 C 31.764391 28.035531 31.437328 27.423141 30.736328 27.244141 C 30.204328 27.109141 29.576234 27.33325 29.115234 28.40625 C 29.038234 28.58525 25.433578 37.607047 25.017578 38.623047 C 24.550578 39.764047 23.578359 41.333984 21.693359 41.333984 C 20.246359 41.333984 17.186187 40.044328 17.992188 36.736328 C 18.221188 35.795328 20.53275 28.470437 21.21875 26.398438 C 21.83375 24.542437 22.728 21.095703 26.625 21.095703 C 28.496 21.095703 29.302406 22.548828 30.566406 22.548828 C 31.772406 22.548828 32.432719 20.455078 34.636719 20.455078 z M 59.847656 25.300781 C 59.272656 25.300781 58.806641 25.766797 58.806641 26.341797 C 58.806641 26.916797 59.272656 27.382812 59.847656 27.382812 C 60.422656 27.382812 60.888672 26.916797 60.888672 26.341797 C 60.888672 25.766797 60.422656 25.300781 59.847656 25.300781 z M 7.5917969 28.521484 C 6.3417969 28.521484 5.328125 29.535156 5.328125 30.785156 C 5.328125 32.035156 6.3417969 33.048828 7.5917969 33.048828 C 8.8417969 33.048828 9.8554688 32.036156 9.8554688 30.785156 C 9.8554688 29.535156 8.8427969 28.521484 7.5917969 28.521484 z M 57.029297 32.029297 C 56.256297 32.029297 55.628906 32.655687 55.628906 33.429688 C 55.628906 34.202688 56.256297 34.830078 57.029297 34.830078 C 57.802297 34.830078 58.429688 34.202688 58.429688 33.429688 C 58.429687 32.656688 57.802297 32.029297 57.029297 32.029297 z M 14.732422 46.177734 C 14.156422 46.177734 13.689453 46.644703 13.689453 47.220703 C 13.689453 47.796703 14.156422 48.263672 14.732422 48.263672 C 15.308422 48.263672 15.775391 47.796703 15.775391 47.220703 C 15.775391 46.644703 15.308422 46.177734 14.732422 46.177734 z M 46.410156 49.818359 C 45.110156 49.818359 44.056641 50.872875 44.056641 52.171875 C 44.056641 53.470875 45.110156 54.525391 46.410156 54.525391 C 47.709156 54.525391 48.763672 53.471875 48.763672 52.171875 C 48.763672 50.872875 47.710156 49.818359 46.410156 49.818359 z M 31.712891 54.158203 C 30.910891 54.158203 30.261719 54.807375 30.261719 55.609375 C 30.261719 56.411375 30.910891 57.0625 31.712891 57.0625 C 32.514891 57.0625 33.164062 56.411375 33.164062 55.609375 C 33.164062 54.807375 32.514891 54.158203 31.712891 54.158203 z"/></svg>